# Blender v2.93.1 OBJ File: 'letrero.blend'
# www.blender.org
mtllib letrero.mtl
o Sign_Malla
v 0.062210 -0.005932 -0.013889
v -0.062210 -0.005932 -0.013889
v -0.062210 2.278250 -0.013888
v 0.062210 2.278250 -0.013888
v 0.504820 2.988605 -0.013888
v -0.504820 2.988605 -0.013888
v -0.504820 2.988605 0.013889
v 0.504820 2.988605 0.013889
v 0.062210 2.278250 0.013889
v -0.062210 2.278250 0.013889
v -0.062210 -0.005932 0.013889
v 0.062210 -0.005932 0.013889
v -0.504820 2.278250 -0.013888
v 0.504820 2.278250 -0.013888
v -0.504820 2.278250 0.013889
v 0.504820 2.278250 0.013889
v 0.484759 2.294743 0.013889
v -0.484759 2.294743 0.013889
v 0.484759 2.972112 0.013889
v -0.484759 2.972112 0.013889
v 0.484759 2.294743 0.005353
v -0.484759 2.294743 0.005353
v 0.484759 2.972112 0.005353
v -0.484759 2.972112 0.005353
vt -1.551940 -3.733068
vt -1.234863 -3.733068
vt -1.234863 2.922184
vt -1.551940 2.922184
vt 2.109586 -1.635322
vt 2.109586 -3.733068
vt 2.180330 -3.733068
vt 2.180330 -1.635322
vt 0.602597 -1.922184
vt 0.919674 -1.922184
vt 0.919674 4.733068
vt 0.602597 4.733068
vt 3.025759 -3.415991
vt 3.025759 -3.733068
vt 3.096502 -3.733068
vt 3.096502 -3.415991
vt 1.865273 -3.733068
vt 1.936016 -3.733068
vt 1.936016 2.922184
vt 1.865273 2.922184
vt 1.987430 -3.733068
vt 2.058172 -3.733068
vt 2.058172 2.922184
vt 1.987430 2.922184
vt -0.344528 2.922184
vt -2.442275 2.922184
vt 2.852189 -2.842732
vt 2.781447 -2.842732
vt 2.781447 -3.733068
vt 2.852189 -3.733068
vt -0.287738 -1.922184
vt 1.810009 -1.922184
vt 2.903603 -3.733068
vt 2.974346 -3.733068
vt 2.974346 -2.842732
vt 2.903603 -2.842732
vt -0.344528 4.733067
vt -2.442275 4.733067
vt 2.384438 -3.733068
vt 2.455182 -3.733068
vt 2.455182 -1.922184
vt 2.384438 -1.922184
vt 2.506594 -3.733068
vt 2.577336 -3.733068
vt 2.577336 -1.922184
vt 2.506594 -1.922184
vt -0.246030 -1.964244
vt 1.768301 -1.964244
vt -0.287738 -3.733068
vt -0.246030 -3.691010
vt 1.810009 -3.733068
vt 1.768301 -3.691010
vt 2.253440 -3.733068
vt 2.253440 -1.718735
vt 2.231742 -1.718735
vt 2.231742 -3.733068
vt 2.650449 -3.733068
vt 2.650449 -2.006301
vt 2.628751 -2.006301
vt 2.628751 -3.733068
vt 2.308089 -1.718736
vt 2.308089 -3.733068
vt 2.329787 -3.733068
vt 2.329787 -1.718736
vt 2.705099 -2.006301
vt 2.705099 -3.733068
vt 2.726797 -3.733068
vt 2.726797 -2.006301
vt 0.019882 0.023226
vt 0.980118 0.023226
vt 0.980118 0.976776
vt 0.019882 0.976776
vn 0.0000 0.0000 -1.0000
vn 0.0000 1.0000 0.0000
vn 0.0000 -0.0000 1.0000
vn 0.0000 -1.0000 -0.0000
vn -1.0000 0.0000 0.0000
vn 1.0000 0.0000 0.0000
vn -0.5774 -0.5773 -0.5774
vn 0.5774 -0.5773 -0.5774
usemtl lambert3
s 1
f 1/1/1 2/2/1 3/3/1 4/4/1
f 5/5/2 6/6/2 7/7/2 8/8/2
f 9/9/3 10/10/3 11/11/3 12/12/3
f 12/13/4 11/14/4 2/15/4 1/16/4
f 2/17/5 11/18/5 10/19/5 3/20/5
f 12/21/6 1/22/6 4/23/6 9/24/6
f 4/4/1 3/3/1 13/25/7 14/26/8
f 3/27/4 10/28/4 15/29/4 13/30/4
f 10/10/3 9/9/3 16/31/3 15/32/3
f 9/33/4 4/34/4 14/35/4 16/36/4
f 14/26/1 13/25/1 6/37/1 5/38/1
f 13/39/5 15/40/5 7/41/5 6/42/5
f 16/43/6 14/44/6 5/45/6 8/46/6
f 15/32/3 16/31/3 17/47/3 18/48/3
f 16/31/3 8/49/3 19/50/3 17/47/3
f 8/49/3 7/51/3 20/52/3 19/50/3
f 7/51/3 15/32/3 18/48/3 20/52/3
f 18/53/2 17/54/2 21/55/2 22/56/2
f 17/57/5 19/58/5 23/59/5 21/60/5
f 19/61/4 20/62/4 24/63/4 23/64/4
f 20/65/6 18/66/6 22/67/6 24/68/6
usemtl lambert2
f 22/69/3 21/70/3 23/71/3 24/72/3
